<svg width="1096" height="869" xmlns="http://www.w3.org/2000/svg" xmlns:xlink="http://www.w3.org/1999/xlink" overflow="hidden"><defs><clipPath id="clip0"><path d="M0 0 1096 0 1096 869 0 869Z" fill-rule="evenodd" clip-rule="evenodd"/></clipPath></defs><g clip-path="url(#clip0)"><rect x="0" y="0" width="1095.58" height="869" fill="#FFFFFF" transform="scale(1.00038 1)"/><path d="M0 47C-6.04506e-15 21.0426 21.2583-5.98373e-15 47.4818-1.19675e-14 73.7052-2.39349e-14 94.9636 21.0426 94.9636 47 94.9636 72.9574 73.7052 94.0001 47.4818 94.0001 21.2583 94.0001-3.02253e-14 72.9574 0 47Z" stroke="#000000" stroke-width="1.33282" stroke-miterlimit="8" fill="#FFFFFF" fill-rule="evenodd" transform="matrix(1.00038 0 -0 1 53.5001 136.5)"/><text font-family="Cambria Math,Cambria Math_MSFontService,sans-serif" font-weight="400" font-size="32" transform="matrix(1 0 0 0.999617 84.7902 194)">ğ‘¥<tspan font-size="23" x="15.9467" y="6.0023">1</tspan></text><path d="M0 47C-5.98143e-15 21.0426 21.0345-5.98373e-15 46.982-1.19675e-14 72.9294-2.39349e-14 93.964 21.0426 93.964 47 93.964 72.9574 72.9294 94.0001 46.982 94.0001 21.0345 94.0001-2.99072e-14 72.9574 0 47Z" stroke="#000000" stroke-width="1.33282" stroke-miterlimit="8" fill="#FFFFFF" fill-rule="evenodd" transform="matrix(1.00038 0 -0 1 52.5001 329.5)"/><text font-family="Cambria Math,Cambria Math_MSFontService,sans-serif" font-weight="400" font-size="32" transform="matrix(1 0 0 0.999617 83.7397 386)">ğ‘¥<tspan font-size="23" x="16.6867" y="7.00269">2</tspan></text><path d="M0 47C-6.04506e-15 21.0426 21.2583-5.98373e-15 47.4818-1.19675e-14 73.7052-2.39349e-14 94.9636 21.0426 94.9636 47 94.9636 72.9574 73.7052 94.0001 47.4818 94.0001 21.2583 94.0001-3.02253e-14 72.9574 0 47Z" stroke="#000000" stroke-width="1.33282" stroke-miterlimit="8" fill="#FFFFFF" fill-rule="evenodd" transform="matrix(1.00038 0 -0 1 51.5001 526.5)"/><text font-family="Cambria Math,Cambria Math_MSFontService,sans-serif" font-weight="400" font-size="32" transform="matrix(1 0 0 0.999617 82.3204 583)">ğ‘¥<tspan font-size="23" x="16.6867" y="7.00269">3</tspan></text><path d="M0 47.5C-6.04506e-15 21.2665 21.2583-6.04738e-15 47.4818-1.20948e-14 73.7052-2.41895e-14 94.9636 21.2665 94.9636 47.5 94.9636 73.7335 73.7052 95 47.4818 95 21.2583 95-3.02253e-14 73.7335 0 47.5Z" stroke="#000000" stroke-width="1.33282" stroke-miterlimit="8" fill="#FFFFFF" fill-rule="evenodd" transform="matrix(1.00038 0 -0 1 361.5 41.5)"/><text font-family="Cambria Math,Cambria Math_MSFontService,sans-serif" font-weight="400" font-size="32" transform="matrix(1 0 0 0.999617 382.088 102)">ğ‘<tspan font-size="23" x="17.0934" y="10.0038">1</tspan><tspan font-size="23" x="18.6133" y="-17.0065">(</tspan><tspan font-size="23" x="28.28" y="-17.0065">1</tspan><tspan font-size="23" x="41.78" y="-17.0065">)</tspan></text><path d="M0 47.5C-6.04506e-15 21.2665 21.2583-6.04738e-15 47.4818-1.20948e-14 73.7052-2.41895e-14 94.9636 21.2665 94.9636 47.5 94.9636 73.7335 73.7052 95 47.4818 95 21.2583 95-3.02253e-14 73.7335 0 47.5Z" stroke="#000000" stroke-width="1.33282" stroke-miterlimit="8" fill="#FFFFFF" fill-rule="evenodd" transform="matrix(1.00038 0 -0 1 361.5 234.5)"/><path d="M0 47.5C-6.04506e-15 21.2665 21.2583-6.04739e-15 47.4818-1.20948e-14 73.7052-2.41896e-14 94.9636 21.2665 94.9636 47.5 94.9636 73.7336 73.7052 95.0001 47.4818 95.0001 21.2583 95.0001-3.02253e-14 73.7336 0 47.5Z" stroke="#000000" stroke-width="1.33282" stroke-miterlimit="8" fill="#FFFFFF" fill-rule="evenodd" transform="matrix(1.00038 0 -0 1 361.5 427.5)"/><text font-family="Cambria Math,Cambria Math_MSFontService,sans-serif" font-weight="400" font-size="32" transform="matrix(1 0 0 0.999617 382.088 488)">ğ‘<tspan font-size="23" x="17.8333" y="10.0038">3</tspan><tspan font-size="23" x="18.6133" y="-17.0065">(</tspan><tspan font-size="23" x="28.28" y="-17.0065">1</tspan><tspan font-size="23" x="41.78" y="-17.0065">)</tspan></text><path d="M0 47.5C-6.04506e-15 21.2665 21.2583-6.04738e-15 47.4818-1.20948e-14 73.7052-2.41895e-14 94.9636 21.2665 94.9636 47.5 94.9636 73.7335 73.7052 95 47.4818 95 21.2583 95-3.02253e-14 73.7335 0 47.5Z" stroke="#000000" stroke-width="1.33282" stroke-miterlimit="8" fill="#FFFFFF" fill-rule="evenodd" transform="matrix(1.00038 0 -0 1 361.5 620.5)"/><text font-family="Cambria Math,Cambria Math_MSFontService,sans-serif" font-weight="400" font-size="32" transform="matrix(1 0 0 0.999617 382.088 681)">ğ‘<tspan font-size="23" x="17.8333" y="10.0038">4</tspan><tspan font-size="23" x="18.6133" y="-17.0065">(</tspan><tspan font-size="23" x="28.28" y="-17.0065">1</tspan><tspan font-size="23" x="41.78" y="-17.0065">)</tspan><tspan x="0" y="-387.148">ğ‘</tspan><tspan font-size="23" x="17.8333" y="-377.145">2</tspan><tspan font-size="23" x="18.6133" y="-404.155">(</tspan><tspan font-size="23" x="28.28" y="-404.155">1</tspan><tspan font-size="23" x="41.78" y="-404.155">)</tspan></text><path d="M0 47C-6.04506e-15 21.0426 21.2583-5.98372e-15 47.4818-1.19674e-14 73.7052-2.39349e-14 94.9636 21.0426 94.9636 47 94.9636 72.9574 73.7052 94 47.4818 94 21.2583 94-3.02253e-14 72.9574 0 47Z" stroke="#000000" stroke-width="1.33282" stroke-miterlimit="8" fill="#FFFFFF" fill-rule="evenodd" transform="matrix(1.00038 0 -0 1 677.5 140.5)"/><text font-family="Cambria Math,Cambria Math_MSFontService,sans-serif" font-weight="400" font-size="32" transform="matrix(1 0 0 0.999617 698.12 201)">ğ‘<tspan font-size="23" x="17.0933" y="9.00345">1</tspan><tspan font-size="23" x="18.6133" y="-18.0069">(</tspan><tspan font-size="23" x="28.28" y="-18.0069">2</tspan><tspan font-size="23" x="41.78" y="-18.0069">)</tspan></text><path d="M0 47C-6.04506e-15 21.0426 21.2583-5.98373e-15 47.4818-1.19675e-14 73.7052-2.39349e-14 94.9636 21.0426 94.9636 47 94.9636 72.9574 73.7052 94.0001 47.4818 94.0001 21.2583 94.0001-3.02253e-14 72.9574 0 47Z" stroke="#000000" stroke-width="1.33282" stroke-miterlimit="8" fill="#FFFFFF" fill-rule="evenodd" transform="matrix(1.00038 0 -0 1 677.5 526.5)"/><text font-family="Cambria Math,Cambria Math_MSFontService,sans-serif" font-weight="400" font-size="32" transform="matrix(1 0 0 0.999617 698.12 587)">ğ‘<tspan font-size="23" x="17.8334" y="9.00345">2</tspan><tspan font-size="23" x="18.6133" y="-17.0065">(</tspan><tspan font-size="23" x="28.28" y="-17.0065">2</tspan><tspan font-size="23" x="41.78" y="-17.0065">)</tspan></text><path d="M0 47C-5.98143e-15 21.0426 21.0345-5.98373e-15 46.982-1.19675e-14 72.9294-2.39349e-14 93.964 21.0426 93.964 47 93.964 72.9574 72.9294 94.0001 46.982 94.0001 21.0345 94.0001-2.99072e-14 72.9574 0 47Z" stroke="#000000" stroke-width="1.33282" stroke-miterlimit="8" fill="#FFFFFF" fill-rule="evenodd" transform="matrix(1.00038 0 -0 1 969.5 329.5)"/><text font-family="Cambria Math,Cambria Math_MSFontService,sans-serif" font-weight="400" font-size="32" transform="matrix(1 0 0 0.999617 1006.3 386)">ğ‘¦</text><path d="M7.67188-22.5313 12.9844-17.6094 12.1406-16.7188 6.625-20.5156 6.45313-20.5156 0.84375-16.7188 0-17.6094 5.57813-22.5313Z" transform="matrix(1 0 0 0.999617 1010.5 386)"/><path d="M-0.134717 0.304758-207.709-91.4528-207.439-92.0624 0.134717-0.304758ZM-207.971-87.5617-213.669-94.452-204.738-94.8758Z" transform="matrix(-1.00038 -0 -0 1 148.5 183.952)"/><path d="M0.304877-0.134446 211.286 478.297 210.677 478.566-0.304877 0.134446ZM214.101 475.595 213.669 484.526 206.784 478.822Z" transform="matrix(1.00038 0 -0 1 148.5 183.5)"/><path d="M0.268716-0.197022 209.997 285.848 209.459 286.242-0.268716 0.197022ZM212.165 282.606 213.669 291.42 205.716 287.335Z" transform="matrix(1.00038 0 -0 1 148.5 183.5)"/><path d="M0.139279-0.3027 207.754 95.2255 207.475 95.8309-0.139279 0.3027ZM208.076 91.3389 213.669 98.314 204.733 98.6037Z" transform="matrix(1.00038 0 -0 1 148.5 183.5)"/><path d="M0.139087-0.302788 208.849 95.5695 208.571 96.1751-0.139087 0.302788ZM209.168 91.6824 214.766 98.6539 205.83 98.9493Z" transform="matrix(1.00038 0 -0 1 146.5 376.5)"/><path d="M-0.134141 0.305012-208.8-91.4641-208.531-92.0741 0.134141-0.305012ZM-209.055-87.5724-214.766-94.452-205.836-94.8927Z" transform="matrix(-1.00038 -0 -0 1 146.5 375.952)"/><path d="M0.268344-0.197529 211.083 286.195 210.547 286.59-0.268344 0.197529ZM213.245 282.949 214.766 291.76 206.805 287.69Z" transform="matrix(1.00038 0 -0 1 146.5 376.5)"/><path d="M-0.266853 0.199538-211.042-281.682-210.509-282.081 0.266853-0.199538ZM-213.179-278.419-214.766-287.218-206.775-283.208Z" transform="matrix(-1.00038 -0 -0 1 146.5 376.718)"/><path d="M-0.304478 0.135348-212.979-478.295-212.37-478.566 0.304478-0.135348ZM-215.787-475.588-215.381-484.519-208.479-478.836Z" transform="matrix(-1.00038 -0 -0 1 146.5 574.019)"/><path d="M-0.268071 0.197898-211.691-286.194-211.155-286.59 0.268071-0.197898ZM-213.849-282.945-215.381-291.753-207.415-287.694Z" transform="matrix(-1.00038 -0 -0 1 146.5 573.253)"/><path d="M-0.138752 0.302942-209.462-95.5699-209.184-96.1758 0.138752-0.302942ZM-209.776-91.6823-215.381-98.6476-206.446-98.9529Z" transform="matrix(-1.00038 -0 -0 1 146.5 573.148)"/><path d="M0.133827-0.305149 209.413 91.4769 209.145 92.0872-0.133827 0.305149ZM209.664 87.5847 215.381 94.4584 206.452 94.9083Z" transform="matrix(1.00038 0 -0 1 146.5 573.5)"/><path d="M0.265408-0.201456 217.695 286.251 217.165 286.653-0.265408 0.201456ZM219.809 282.973 221.459 291.76 213.439 287.808Z" transform="matrix(1.00038 0 -0 1 456.5 281.5)"/><path d="M-0.130719 0.306494-215.46-91.5311-215.198-92.1441 0.130719-0.306494ZM-215.672-87.6368-221.459-94.452-212.535-94.9926Z" transform="matrix(-1.00038 -0 -0 1 456.5 281.952)"/><path d="M0.303051-0.138513 218.991 478.325 218.385 478.602-0.303051 0.138513ZM221.771 475.59 221.459 484.526 214.498 478.915Z" transform="matrix(1.00038 0 -0 1 456.5 89.4999)"/><path d="M0.135199-0.304544 215.503 95.3052 215.232 95.9143-0.135199 0.304544ZM215.772 91.4147 221.459 98.314 212.528 98.7238Z" transform="matrix(1.00038 0 -0 1 456.5 89.4999)"/><path d="M-0.263991 0.203309-217.657-282.075-217.129-282.482 0.263991-0.203309ZM-219.747-278.782-221.459-287.558-213.412-283.662Z" transform="matrix(-1.00038 -0 -0 1 456.5 475.058)"/><path d="M0.135589-0.304371 215.507 95.638 215.236 96.2467-0.135589 0.304371ZM215.781 91.7474 221.459 98.654 212.527 99.0523Z" transform="matrix(1.00038 0 -0 1 456.5 474.5)"/><path d="M-0.130719 0.306494-215.46-91.5311-215.198-92.1441 0.130719-0.306494ZM-215.672-87.6368-221.459-94.452-212.535-94.9926Z" transform="matrix(-1.00038 -0 -0 1 456.5 667.952)"/><path d="M-0.130719 0.306494-215.46-91.5311-215.198-92.1441 0.130719-0.306494ZM-215.672-87.6368-221.459-94.452-212.535-94.9926Z" transform="matrix(-1.00038 -0 -0 1 456.5 667.952)"/><path d="M-0.235733 0.235491-192.632-192.358-192.16-192.829 0.235733-0.235491ZM-194.283-188.824-197.106-197.308-188.625-194.476Z" transform="matrix(-1.00038 -0 -0 1 772.5 573.808)"/><path d="M0.230554-0.240564 192.526 184.053 192.064 184.534-0.230554 0.240564ZM194.099 180.484 197.106 188.904 188.566 186.257Z" transform="matrix(1.00038 0 -0 1 772.5 187.5)"/><text font-family="Cambria Math,Cambria Math_MSFontService,sans-serif" font-weight="400" font-size="32" transform="matrix(1 0 0 0.999617 200.416 127)">ğ‘¤<tspan font-size="23" x="20.8933" y="9.00345">11</tspan><tspan font-size="23" x="25.62" y="-18.0069">(</tspan><tspan font-size="23" x="35.2867" y="-18.0069">1</tspan><tspan font-size="23" x="48.7867" y="-18.0069">)</tspan><tspan x="646.879" y="121.046">ğ‘¤</tspan><tspan font-size="23" x="667.772" y="130.05">11</tspan><tspan font-size="23" x="672.499" y="104.04">(</tspan><tspan font-size="23" x="682.166" y="104.04">3</tspan><tspan font-size="23" x="695.666" y="104.04">)</tspan><tspan x="336.144" y="-12.0046">ğ‘¤</tspan><tspan font-size="23" x="357.037" y="-2.00077">11</tspan><tspan font-size="23" x="361.764" y="-29.0111">(</tspan><tspan font-size="23" x="371.431" y="-29.0111">2</tspan><tspan font-size="23" x="384.931" y="-29.0111">)</tspan><tspan x="-7.09818" y="530.203">ğ‘¤</tspan><tspan font-size="23" x="14.5352" y="540.207">34</tspan><tspan font-size="23" x="18.5218" y="513.197">(</tspan><tspan font-size="23" x="28.1885" y="513.197">1</tspan><tspan font-size="23" x="41.6885" y="513.197">)</tspan><tspan x="-3.60326" y="74.0284">ğ‘¤</tspan><tspan font-size="23" x="17.2901" y="83.0318">12</tspan><tspan font-size="23" x="22.0167" y="56.0215">(</tspan><tspan font-size="23" x="31.6834" y="56.0215">1</tspan><tspan font-size="23" x="45.1834" y="56.0215">)</tspan><tspan x="646.879" y="400.153">ğ‘¤</tspan><tspan font-size="23" x="668.512" y="410.157">21</tspan><tspan font-size="23" x="672.499" y="383.147">(</tspan><tspan font-size="23" x="682.166" y="383.147">3</tspan><tspan font-size="23" x="695.666" y="383.147">)</tspan></text><rect x="0" y="0" width="140.946" height="520" stroke="#70AD47" stroke-width="3.99847" stroke-linejoin="round" stroke-miterlimit="10" fill="none" transform="matrix(1.00038 0 -0 1 28 118)"/><rect x="0" y="0" width="453.826" height="702" stroke="#FF0000" stroke-width="3.99847" stroke-linejoin="round" stroke-miterlimit="10" fill="none" transform="matrix(1.00038 0 -0 1 339 31)"/><rect x="0" y="0" width="162.938" height="189" stroke="#0070C0" stroke-width="3.99847" stroke-linejoin="round" stroke-miterlimit="10" fill="none" transform="matrix(1.00038 0 -0 1 933 281)"/><text fill="#70AD47" font-family="Calibri,Calibri_MSFontService,sans-serif" font-weight="400" font-size="48" transform="matrix(1 0 0 0.999617 46.4609 786)">Input <tspan x="-0.0933342" y="58.0223">Layer</tspan><tspan fill="#FF0000" x="392.289" y="29.0111">Hidden</tspan><tspan fill="#FF0000" x="543.289" y="29.0111">Layer</tspan><tspan fill="#0070C0" x="898.527" y="0">Output </tspan><tspan fill="#0070C0" x="916.267" y="58.0223">Layer</tspan></text><path d="M-0.302629 0.139432-218.974-474.474-218.369-474.752 0.302629-0.139432ZM-221.744-471.727-221.459-480.664-214.481-475.074Z" transform="matrix(-1.00038 -0 -0 1 456.5 668.164)"/></g></svg>